# Blender 4.2.0
# www.blender.org
mtllib crystal_textures.mtl

usemtl orange_crystal_block

o Icosphere.036_Icosphere.037
v 0.517341 0.027027 0.708760
v 0.446201 0.064233 0.697540
v 0.522636 0.079584 0.643959
v 0.591823 0.022482 0.680081
v 0.558145 -0.028159 0.755987
v 0.468147 -0.002356 0.766776
v 0.491875 0.366957 0.828156
v 0.643016 0.351622 0.785668
v 0.677158 0.207729 0.883549
v 0.567619 0.183984 0.945617
v 0.475678 0.211379 0.941170
v 0.597892 0.335083 0.938058
v 0.472043 0.063159 0.559649
v 0.607517 0.063466 0.659523
v 0.420297 0.063466 0.721249
v 0.304586 0.063466 0.559649
v 0.420297 0.063466 0.398049
v 0.607517 0.063466 0.459776
v 0.545611 0.802349 0.757545
v 0.358415 0.805766 0.679556
v 0.333344 0.783799 0.466759
v 0.481546 0.790833 0.449143
v 0.648524 0.772018 0.532127
v 0.506148 0.932931 0.577550
v 0.598239 -0.019941 0.574492
v 0.712986 -0.046678 0.476766
v 0.714392 -0.078016 0.655475
v 0.555411 -0.028740 0.722332
v 0.455750 0.033053 0.584938
v 0.553138 0.021966 0.433171
v 1.004058 0.541365 0.652469
v 0.933436 0.541957 0.842602
v 0.730600 0.587322 0.792460
v 0.731741 0.604759 0.660151
v 0.807260 0.580606 0.534231
v 0.890046 0.729215 0.757182
v 0.361756 0.030617 0.588598
v 0.360156 0.008620 0.709727
v 0.251732 -0.016670 0.621242
v 0.295232 0.023726 0.487704
v 0.430542 0.073982 0.493661
v 0.470666 0.064646 0.630878
v 0.070078 0.570477 0.818766
v -0.007540 0.572011 0.679335
v 0.131296 0.604468 0.575930
v 0.185047 0.619931 0.672714
v 0.247420 0.596081 0.752927
v 0.063904 0.706408 0.686099
v 0.415031 0.020791 0.681485
v 0.436681 -0.015410 0.751684
v 0.349541 -0.016766 0.715600
v 0.352854 0.033984 0.632491
v 0.442041 0.066706 0.617213
v 0.493848 0.036179 0.690879
v 0.296633 0.305769 1.000824
v 0.196587 0.339157 0.910827
v 0.287388 0.393293 0.798461
v 0.390245 0.383980 0.841213
v 0.428637 0.345784 0.906471
v 0.265427 0.451414 0.928200
v 0.422250 -0.019941 0.401557
v 0.348895 -0.046678 0.269016
v 0.522220 -0.078017 0.300764
v 0.557474 -0.028741 0.471685
v 0.405935 0.033053 0.545569
v 0.277027 0.021966 0.420313
v 0.573040 0.541365 0.011383
v 0.744067 0.541957 0.117068
v 0.657884 0.587322 0.310013
v 0.529966 0.604759 0.284332
v 0.422033 0.580606 0.185676
v 0.653296 0.729215 0.144487
v 0.325209 0.020094 0.514396
v 0.435773 0.033473 0.467846
v 0.389282 0.088841 0.591721
v 0.254155 0.049454 0.608590
v 0.217134 -0.030257 0.495138
v 0.329379 -0.040133 0.408156
v 0.305939 0.517192 0.269242
v 0.200652 0.551713 0.384454
v 0.080950 0.441979 0.333224
v 0.146402 0.425294 0.243914
v 0.235554 0.382014 0.263691
v 0.134174 0.612910 0.261315
v 0.546808 0.056129 0.439142
v 0.496277 0.063686 0.328480
v 0.610035 -0.014593 0.362888
v 0.636595 0.005100 0.502609
v 0.539250 0.095551 0.554551
v 0.452529 0.131758 0.446934
v 0.856997 0.428874 0.175353
v 0.972708 0.372360 0.269689
v 0.908180 0.426751 0.418597
v 0.832842 0.479097 0.354712
v 0.745095 0.499754 0.304996
v 0.951792 0.506791 0.304635
vn -0.2858 -0.7327 -0.6176
vn -0.2870 -0.7343 -0.6152
vn -0.2827 -0.7335 -0.6180
vn -0.2820 -0.7356 -0.6159
vn -0.2847 -0.7361 -0.6142
vn -0.9739 -0.1219 0.1915
vn -0.5792 0.3951 -0.7131
vn 0.5635 0.1716 -0.8081
vn 0.8752 -0.4788 0.0689
vn -0.1002 -0.6606 0.7440
vn -0.9904 0.1322 0.0400
vn -0.1827 0.5166 -0.8365
vn 0.9305 -0.0276 -0.3652
vn 0.4904 -0.5929 0.6387
vn -0.2192 -0.6122 0.7597
vn -0.5250 0.5353 0.6617
vn 0.1409 0.9789 0.1480
vn 0.8622 0.4084 0.2996
vn 0.5016 -0.0573 0.8632
vn -0.0315 0.0562 0.9979
vn 0.0007 -1.0000 0.0021
vn 0.0023 -1.0000 -0.0000
vn -0.0018 -1.0000 0.0013
vn -0.0018 -1.0000 -0.0013
vn 0.0007 -1.0000 -0.0021
vn 0.9983 -0.0578 -0.0000
vn 0.3116 -0.0993 0.9450
vn -0.8126 -0.0351 0.5818
vn -0.8123 -0.0426 -0.5816
vn 0.3129 0.0403 -0.9489
vn 0.9106 0.0215 0.4128
vn -0.3842 0.0198 0.9230
vn -0.9923 0.0540 0.1113
vn -0.1214 0.0797 -0.9894
vn 0.4500 0.0649 -0.8907
vn 0.7580 0.5956 0.2659
vn -0.2377 0.7607 0.6040
vn -0.6529 0.7575 -0.0013
vn -0.1185 0.6770 -0.7264
vn 0.4166 0.5688 -0.7092
vn -0.3505 -0.9229 -0.1591
vn -0.3520 -0.9220 -0.1611
vn -0.3520 -0.9228 -0.1569
vn -0.3544 -0.9217 -0.1575
vn -0.3544 -0.9213 -0.1601
vn 0.2810 0.0456 -0.9586
vn 0.9027 -0.4226 -0.0812
vn 0.2634 -0.3629 0.8938
vn -0.7679 0.1474 0.6233
vn -0.7464 0.4274 -0.5102
vn 0.5152 0.0011 -0.8571
vn 0.8587 -0.4000 0.3202
vn -0.2481 -0.0396 0.9679
vn -0.9020 0.4290 0.0488
vn -0.7358 0.4294 -0.5236
vn 0.4879 0.6318 -0.6023
vn 0.8779 0.3517 0.3250
vn -0.1398 0.3840 0.9127
vn -0.6502 0.7540 0.0938
vn -0.4026 0.8236 -0.3995
vn 0.3484 -0.9231 -0.1630
vn 0.3513 -0.9220 -0.1628
vn 0.3474 -0.9229 -0.1660
vn 0.3497 -0.9217 -0.1676
vn 0.3521 -0.9212 -0.1656
vn 0.5640 0.0476 0.8244
vn -0.5164 -0.4123 0.7506
vn -0.8588 -0.3405 -0.3828
vn -0.0111 0.1471 -0.9891
vn 0.8605 0.4592 -0.2204
vn 0.3483 -0.0021 0.9374
vn -0.8036 -0.3976 0.4429
vn -0.5901 -0.0441 -0.8061
vn 0.7288 0.4859 -0.4824
vn 0.7698 0.4314 -0.4704
vn 0.1608 0.6931 0.7027
vn -0.7982 0.4017 0.4488
vn -0.6100 0.3598 -0.7060
vn 0.5024 0.7659 -0.4014
vn 0.5561 0.8087 -0.1919
vn 0.2200 -0.8377 -0.4998
vn 0.2230 -0.8367 -0.5002
vn 0.2182 -0.8367 -0.5023
vn 0.2200 -0.8351 -0.5041
vn 0.2230 -0.8351 -0.5029
vn 0.7974 -0.2226 0.5609
vn -0.2781 -0.6615 0.6965
vn -0.9347 -0.2856 -0.2117
vn -0.2840 0.3589 -0.8891
vn 0.8159 0.4164 -0.4012
vn 0.6132 -0.2996 0.7309
vn -0.6493 -0.5608 0.5137
vn -0.8003 0.1251 -0.5864
vn 0.3575 0.5769 -0.7344
vn 0.8759 0.3860 -0.2894
vn 0.4114 0.4758 0.7774
vn -0.6000 0.2503 0.7598
vn -0.7670 0.5270 -0.3659
vn 0.2331 0.9016 -0.3644
vn 0.5512 0.8197 0.1555
vn -0.2239 -0.9239 0.3103
vn -0.2261 -0.9230 0.3113
vn -0.2220 -0.9238 0.3121
vn -0.2230 -0.9228 0.3143
vn -0.2256 -0.9223 0.3138
vn -0.8943 0.0451 -0.4453
vn 0.0875 -0.4275 -0.8997
vn 0.9293 -0.3587 -0.0883
vn 0.4816 0.1482 0.8638
vn -0.6484 0.4283 0.6294
vn -0.7557 0.0011 -0.6550
vn 0.4821 -0.4030 -0.7779
vn 0.9089 -0.0392 0.4152
vn -0.1201 0.4340 0.8929
vn -0.6596 0.4301 0.6164
vn -0.5099 0.6316 -0.5840
vn 0.4907 0.3544 -0.7960
vn 0.8746 0.3798 0.3014
vn -0.0273 0.7586 0.6510
vn -0.4726 0.8229 0.3156
vn 0.3022 -0.8229 0.4812
vn 0.3015 -0.8243 0.4791
vn 0.3001 -0.8227 0.4828
vn 0.2981 -0.8241 0.4817
vn 0.2990 -0.8251 0.4795
vn 0.5620 -0.1532 -0.8128
vn 0.9229 0.3295 0.1991
vn -0.0046 0.4071 0.9134
vn -0.9121 -0.1297 0.3888
vn -0.5679 -0.4633 -0.6803
vn 0.4848 -0.2177 -0.8471
vn 0.7061 0.5084 0.4929
vn -0.5824 0.2787 0.7636
vn -0.7751 -0.3931 -0.4946
vn 0.0592 -0.3114 -0.9484
vn 0.0534 0.0132 -0.9985
vn 0.4732 0.8636 0.1737
vn -0.6689 0.4554 0.5875
vn -0.8064 0.0023 -0.5914
vn 0.2642 0.1061 -0.9586
vn -0.5973 -0.7713 0.2201
vn -0.5991 -0.7696 0.2210
vn -0.5957 -0.7719 0.2220
vn -0.5965 -0.7707 0.2242
vn -0.5986 -0.7692 0.2236
vn -0.7575 0.4046 -0.5123
vn 0.0076 -0.3931 -0.9195
vn 0.7241 -0.6885 -0.0406
vn 0.4087 -0.0821 0.9090
vn -0.4599 0.6610 0.5930
vn -0.6247 0.3181 -0.7131
vn 0.3666 -0.5281 -0.7660
vn 0.7764 -0.4037 0.4839
vn -0.2445 0.5886 0.7706
vn -0.3114 0.5472 0.7769
vn -0.0303 0.8658 -0.4995
vn 0.6852 0.2813 -0.6719
vn 0.9224 0.0438 0.3837
vn 0.0604 0.8058 0.5891
vn -0.0300 0.9032 0.4282
vt 0.181819 0.000000
vt 0.272728 0.157461
vt 0.090910 0.157461
vt 0.363637 0.000000
vt 0.454546 0.157461
vt 0.909091 0.000000
vt 1.000000 0.157461
vt 0.818182 0.157461
vt 0.727273 0.000000
vt 0.636364 0.157461
vt 0.545455 0.000000
vt 0.363637 0.314921
vt 0.181819 0.314921
vt 0.909091 0.314921
vt 0.727273 0.314921
vt 0.545455 0.314921
vt 0.000000 0.314921
vt 0.272728 0.472382
vt 0.090910 0.472382
vt 0.818182 0.472382
vt 0.636364 0.472382
vt 0.454546 0.472382
s 0
#usemtl Material.001
f 1/1/1 2/2/1 3/3/1
f 2/2/2 1/4/2 6/5/2
f 1/6/3 3/7/3 4/8/3
f 1/9/4 4/8/4 5/10/4
f 1/11/5 5/10/5 6/5/5
f 2/2/6 6/5/6 11/12/6
f 3/3/7 2/2/7 7/13/7
f 4/8/8 3/7/8 8/14/8
f 5/10/9 4/8/9 9/15/9
f 6/5/10 5/10/10 10/16/10
f 2/2/11 11/12/11 7/13/11
f 3/3/12 7/13/12 8/17/12
f 4/8/13 8/14/13 9/15/13
f 5/10/14 9/15/14 10/16/14
f 6/5/15 10/16/15 11/12/15
f 7/13/16 11/12/16 12/18/16
f 8/17/17 7/13/17 12/19/17
f 9/15/18 8/14/18 12/20/18
f 10/16/19 9/15/19 12/21/19
f 11/12/20 10/16/20 12/22/20
f 13/1/21 14/2/21 15/3/21
f 14/2/22 13/4/22 18/5/22
f 13/6/23 15/7/23 16/8/23
f 13/9/24 16/8/24 17/10/24
f 13/11/25 17/10/25 18/5/25
f 14/2/26 18/5/26 23/12/26
f 15/3/27 14/2/27 19/13/27
f 16/8/28 15/7/28 20/14/28
f 17/10/29 16/8/29 21/15/29
f 18/5/30 17/10/30 22/16/30
f 14/2/31 23/12/31 19/13/31
f 15/3/32 19/13/32 20/17/32
f 16/8/33 20/14/33 21/15/33
f 17/10/34 21/15/34 22/16/34
f 18/5/35 22/16/35 23/12/35
f 19/13/36 23/12/36 24/18/36
f 20/17/37 19/13/37 24/19/37
f 21/15/38 20/14/38 24/20/38
f 22/16/39 21/15/39 24/21/39
f 23/12/40 22/16/40 24/22/40
f 25/1/41 26/2/41 27/3/41
f 26/2/42 25/4/42 30/5/42
f 25/6/43 27/7/43 28/8/43
f 25/9/44 28/8/44 29/10/44
f 25/11/45 29/10/45 30/5/45
f 26/2/46 30/5/46 35/12/46
f 27/3/47 26/2/47 31/13/47
f 28/8/48 27/7/48 32/14/48
f 29/10/49 28/8/49 33/15/49
f 30/5/50 29/10/50 34/16/50
f 26/2/51 35/12/51 31/13/51
f 27/3/52 31/13/52 32/17/52
f 28/8/53 32/14/53 33/15/53
f 29/10/54 33/15/54 34/16/54
f 30/5/55 34/16/55 35/12/55
f 31/13/56 35/12/56 36/18/56
f 32/17/57 31/13/57 36/19/57
f 33/15/58 32/14/58 36/20/58
f 34/16/59 33/15/59 36/21/59
f 35/12/60 34/16/60 36/22/60
f 37/1/61 38/2/61 39/3/61
f 38/2/62 37/4/62 42/5/62
f 37/6/63 39/7/63 40/8/63
f 37/9/64 40/8/64 41/10/64
f 37/11/65 41/10/65 42/5/65
f 38/2/66 42/5/66 47/12/66
f 39/3/67 38/2/67 43/13/67
f 40/8/68 39/7/68 44/14/68
f 41/10/69 40/8/69 45/15/69
f 42/5/70 41/10/70 46/16/70
f 38/2/71 47/12/71 43/13/71
f 39/3/72 43/13/72 44/17/72
f 40/8/73 44/14/73 45/15/73
f 41/10/74 45/15/74 46/16/74
f 42/5/75 46/16/75 47/12/75
f 43/13/76 47/12/76 48/18/76
f 44/17/77 43/13/77 48/19/77
f 45/15/78 44/14/78 48/20/78
f 46/16/79 45/15/79 48/21/79
f 47/12/80 46/16/80 48/22/80
f 49/1/81 50/2/81 51/3/81
f 50/2/82 49/4/82 54/5/82
f 49/6/83 51/7/83 52/8/83
f 49/9/84 52/8/84 53/10/84
f 49/11/85 53/10/85 54/5/85
f 50/2/86 54/5/86 59/12/86
f 51/3/87 50/2/87 55/13/87
f 52/8/88 51/7/88 56/14/88
f 53/10/89 52/8/89 57/15/89
f 54/5/90 53/10/90 58/16/90
f 50/2/91 59/12/91 55/13/91
f 51/3/92 55/13/92 56/17/92
f 52/8/93 56/14/93 57/15/93
f 53/10/94 57/15/94 58/16/94
f 54/5/95 58/16/95 59/12/95
f 55/13/96 59/12/96 60/18/96
f 56/17/97 55/13/97 60/19/97
f 57/15/98 56/14/98 60/20/98
f 58/16/99 57/15/99 60/21/99
f 59/12/100 58/16/100 60/22/100
f 61/1/101 62/2/101 63/3/101
f 62/2/102 61/4/102 66/5/102
f 61/6/103 63/7/103 64/8/103
f 61/9/104 64/8/104 65/10/104
f 61/11/105 65/10/105 66/5/105
f 62/2/106 66/5/106 71/12/106
f 63/3/107 62/2/107 67/13/107
f 64/8/108 63/7/108 68/14/108
f 65/10/109 64/8/109 69/15/109
f 66/5/110 65/10/110 70/16/110
f 62/2/111 71/12/111 67/13/111
f 63/3/112 67/13/112 68/17/112
f 64/8/113 68/14/113 69/15/113
f 65/10/114 69/15/114 70/16/114
f 66/5/115 70/16/115 71/12/115
f 67/13/116 71/12/116 72/18/116
f 68/17/117 67/13/117 72/19/117
f 69/15/118 68/14/118 72/20/118
f 70/16/119 69/15/119 72/21/119
f 71/12/120 70/16/120 72/22/120
f 73/1/121 74/2/121 75/3/121
f 74/2/122 73/4/122 78/5/122
f 73/6/123 75/7/123 76/8/123
f 73/9/124 76/8/124 77/10/124
f 73/11/125 77/10/125 78/5/125
f 74/2/126 78/5/126 83/12/126
f 75/3/127 74/2/127 79/13/127
f 76/8/128 75/7/128 80/14/128
f 77/10/129 76/8/129 81/15/129
f 78/5/130 77/10/130 82/16/130
f 74/2/131 83/12/131 79/13/131
f 75/3/132 79/13/132 80/17/132
f 76/8/133 80/14/133 81/15/133
f 77/10/134 81/15/134 82/16/134
f 78/5/135 82/16/135 83/12/135
f 79/13/136 83/12/136 84/18/136
f 80/17/137 79/13/137 84/19/137
f 81/15/138 80/14/138 84/20/138
f 82/16/139 81/15/139 84/21/139
f 83/12/140 82/16/140 84/22/140
f 85/1/141 86/2/141 87/3/141
f 86/2/142 85/4/142 90/5/142
f 85/6/143 87/7/143 88/8/143
f 85/9/144 88/8/144 89/10/144
f 85/11/145 89/10/145 90/5/145
f 86/2/146 90/5/146 95/12/146
f 87/3/147 86/2/147 91/13/147
f 88/8/148 87/7/148 92/14/148
f 89/10/149 88/8/149 93/15/149
f 90/5/150 89/10/150 94/16/150
f 86/2/151 95/12/151 91/13/151
f 87/3/152 91/13/152 92/17/152
f 88/8/153 92/14/153 93/15/153
f 89/10/154 93/15/154 94/16/154
f 90/5/155 94/16/155 95/12/155
f 91/13/156 95/12/156 96/18/156
f 92/17/157 91/13/157 96/19/157
f 93/15/158 92/14/158 96/20/158
f 94/16/159 93/15/159 96/21/159
f 95/12/160 94/16/160 96/22/160
